<svg width="344" height="48" viewBox="0 0 344 48" fill="none" xmlns="http://www.w3.org/2000/svg">
<path d="M13.824 2.92C16.32 2.92 18.48 3.272 20.304 3.976C22.16 4.68 23.84 5.752 25.344 7.192L21.696 11.464C19.424 9.608 16.992 8.68 14.4 8.68C13.024 8.68 11.936 8.968 11.136 9.544C10.336 10.088 9.936 10.888 9.936 11.944C9.936 12.68 10.112 13.288 10.464 13.768C10.816 14.216 11.44 14.648 12.336 15.064C13.232 15.48 14.576 15.976 16.368 16.552C19.76 17.64 22.256 18.984 23.856 20.584C25.456 22.152 26.256 24.392 26.256 27.304C26.256 29.384 25.728 31.224 24.672 32.824C23.616 34.392 22.096 35.624 20.112 36.52C18.128 37.384 15.776 37.816 13.056 37.816C10.336 37.816 7.92 37.384 5.808 36.52C3.728 35.656 1.936 34.504 0.432 33.064L4.416 28.696C5.696 29.784 7.008 30.6 8.352 31.144C9.728 31.688 11.216 31.96 12.816 31.96C14.448 31.96 15.728 31.608 16.656 30.904C17.616 30.168 18.096 29.16 18.096 27.88C18.096 27.048 17.92 26.36 17.568 25.816C17.216 25.24 16.608 24.728 15.744 24.28C14.88 23.832 13.632 23.352 12 22.84C8.32 21.72 5.696 20.344 4.128 18.712C2.592 17.08 1.824 15.016 1.824 12.52C1.824 10.6 2.336 8.92 3.36 7.48C4.384 6.008 5.808 4.888 7.632 4.12C9.456 3.32 11.52 2.92 13.824 2.92ZM46.4288 35.8C45.5008 36.44 44.4128 36.936 43.1648 37.288C41.9488 37.64 40.7328 37.816 39.5168 37.816C33.9488 37.784 31.1648 34.712 31.1648 28.6V16.792H27.5648V11.512H31.1648V5.992L38.7488 5.128V11.512H44.6048L43.7888 16.792H38.7488V28.504C38.7488 29.688 38.9408 30.536 39.3248 31.048C39.7088 31.56 40.3168 31.816 41.1488 31.816C42.0128 31.816 42.9248 31.544 43.8848 31L46.4288 35.8ZM70.3406 23.752C70.3406 24.808 70.2926 25.72 70.1966 26.488H54.4046C54.6606 28.632 55.2686 30.136 56.2286 31C57.1886 31.864 58.5166 32.296 60.2126 32.296C61.2366 32.296 62.2286 32.12 63.1886 31.768C64.1486 31.384 65.1886 30.808 66.3086 30.04L69.4286 34.264C66.4526 36.632 63.1406 37.816 59.4926 37.816C55.3646 37.816 52.1966 36.6 49.9886 34.168C47.7806 31.736 46.6766 28.472 46.6766 24.376C46.6766 21.784 47.1406 19.464 48.0686 17.416C48.9966 15.336 50.3566 13.704 52.1486 12.52C53.9406 11.304 56.0846 10.696 58.5806 10.696C62.2606 10.696 65.1406 11.848 67.2206 14.152C69.3006 16.456 70.3406 19.656 70.3406 23.752ZM62.9006 21.592C62.8366 17.688 61.4606 15.736 58.7726 15.736C57.4606 15.736 56.4366 16.216 55.7006 17.176C54.9966 18.136 54.5646 19.72 54.4046 21.928H62.9006V21.592ZM86.265 6.184C85.177 6.184 84.393 6.44 83.913 6.952C83.433 7.464 83.193 8.328 83.193 9.544V11.512H89.193L88.377 16.792H83.193V37H75.609V16.792H71.769V11.512H75.609V9.256C75.609 6.696 76.441 4.616 78.105 3.016C79.801 1.384 82.217 0.567997 85.353 0.567997C87.881 0.567997 90.201 1.112 92.313 2.2L90.249 7.144C88.969 6.504 87.641 6.184 86.265 6.184ZM110.795 29.608C110.795 30.568 110.923 31.272 111.179 31.72C111.467 32.168 111.915 32.504 112.523 32.728L110.939 37.672C109.371 37.544 108.091 37.208 107.099 36.664C106.107 36.088 105.339 35.192 104.795 33.976C103.131 36.536 100.571 37.816 97.1145 37.816C94.5865 37.816 92.5705 37.08 91.0665 35.608C89.5625 34.136 88.8105 32.216 88.8105 29.848C88.8105 27.064 89.8345 24.936 91.8825 23.464C93.9305 21.992 96.8905 21.256 100.763 21.256H103.355V20.152C103.355 18.648 103.035 17.624 102.395 17.08C101.755 16.504 100.635 16.216 99.0345 16.216C98.2025 16.216 97.1945 16.344 96.0105 16.6C94.8265 16.824 93.6105 17.144 92.3625 17.56L90.6345 12.568C92.2345 11.96 93.8665 11.496 95.5305 11.176C97.2265 10.856 98.7945 10.696 100.234 10.696C103.883 10.696 106.555 11.448 108.251 12.952C109.947 14.456 110.795 16.712 110.795 19.72V29.608ZM99.3225 32.392C101.051 32.392 102.395 31.576 103.355 29.944V25.432H101.483C99.7545 25.432 98.4585 25.736 97.5945 26.344C96.7625 26.952 96.3465 27.896 96.3465 29.176C96.3465 30.2 96.6025 31 97.1145 31.576C97.6585 32.12 98.3945 32.392 99.3225 32.392ZM131.763 10.696C133.971 10.696 135.699 11.368 136.947 12.712C138.195 14.056 138.819 15.944 138.819 18.376V37H131.235V19.672C131.235 18.392 131.027 17.512 130.611 17.032C130.227 16.52 129.635 16.264 128.835 16.264C127.299 16.264 125.827 17.368 124.419 19.576V37H116.835V11.512H123.459L123.987 14.536C125.075 13.256 126.243 12.296 127.491 11.656C128.771 11.016 130.195 10.696 131.763 10.696ZM169.657 2.92C171.737 2.92 173.577 3.224 175.177 3.832C176.809 4.44 178.345 5.352 179.785 6.568L176.041 11.032C175.049 10.264 174.073 9.688 173.113 9.304C172.153 8.92 171.129 8.728 170.041 8.728C167.801 8.728 166.025 9.672 164.713 11.56C163.433 13.448 162.793 16.36 162.793 20.296C162.793 24.168 163.433 27.048 164.713 28.936C166.025 30.792 167.833 31.72 170.137 31.72C171.353 31.72 172.457 31.496 173.449 31.048C174.441 30.568 175.513 29.896 176.665 29.032L180.169 33.544C178.921 34.792 177.401 35.816 175.609 36.616C173.849 37.416 171.897 37.816 169.753 37.816C166.681 37.816 164.009 37.144 161.737 35.8C159.465 34.456 157.689 32.472 156.409 29.848C155.161 27.192 154.537 24.008 154.537 20.296C154.537 16.68 155.177 13.56 156.457 10.936C157.769 8.312 159.561 6.328 161.833 4.984C164.137 3.608 166.745 2.92 169.657 2.92ZM203.326 29.608C203.326 30.568 203.454 31.272 203.71 31.72C203.998 32.168 204.446 32.504 205.054 32.728L203.47 37.672C201.902 37.544 200.622 37.208 199.63 36.664C198.638 36.088 197.87 35.192 197.326 33.976C195.662 36.536 193.102 37.816 189.646 37.816C187.118 37.816 185.102 37.08 183.598 35.608C182.094 34.136 181.342 32.216 181.342 29.848C181.342 27.064 182.366 24.936 184.414 23.464C186.462 21.992 189.422 21.256 193.294 21.256H195.886V20.152C195.886 18.648 195.566 17.624 194.926 17.08C194.286 16.504 193.166 16.216 191.566 16.216C190.734 16.216 189.726 16.344 188.542 16.6C187.358 16.824 186.142 17.144 184.894 17.56L183.166 12.568C184.766 11.96 186.398 11.496 188.062 11.176C189.758 10.856 191.326 10.696 192.766 10.696C196.414 10.696 199.086 11.448 200.782 12.952C202.478 14.456 203.326 16.712 203.326 19.72V29.608ZM191.854 32.392C193.582 32.392 194.926 31.576 195.886 29.944V25.432H194.014C192.286 25.432 190.99 25.736 190.126 26.344C189.294 26.952 188.878 27.896 188.878 29.176C188.878 30.2 189.134 31 189.646 31.576C190.19 32.12 190.926 32.392 191.854 32.392ZM237.543 10.696C239.559 10.696 241.175 11.384 242.391 12.76C243.607 14.104 244.215 15.976 244.215 18.376V37H236.631V19.672C236.631 17.4 235.911 16.264 234.471 16.264C233.671 16.264 232.967 16.536 232.359 17.08C231.751 17.624 231.159 18.456 230.583 19.576V37H222.999V19.672C222.999 17.4 222.279 16.264 220.839 16.264C220.071 16.264 219.367 16.552 218.727 17.128C218.119 17.672 217.527 18.488 216.951 19.576V37H209.367V11.512H215.991L216.519 14.488C217.511 13.208 218.599 12.264 219.783 11.656C220.999 11.016 222.375 10.696 223.911 10.696C225.351 10.696 226.583 11.048 227.607 11.752C228.663 12.456 229.431 13.448 229.911 14.728C230.935 13.352 232.055 12.344 233.271 11.704C234.519 11.032 235.943 10.696 237.543 10.696ZM270.17 29.608C270.17 30.568 270.298 31.272 270.554 31.72C270.842 32.168 271.29 32.504 271.898 32.728L270.314 37.672C268.746 37.544 267.466 37.208 266.474 36.664C265.482 36.088 264.714 35.192 264.17 33.976C262.506 36.536 259.946 37.816 256.49 37.816C253.962 37.816 251.946 37.08 250.442 35.608C248.938 34.136 248.186 32.216 248.186 29.848C248.186 27.064 249.21 24.936 251.258 23.464C253.306 21.992 256.266 21.256 260.138 21.256H262.73V20.152C262.73 18.648 262.41 17.624 261.77 17.08C261.13 16.504 260.01 16.216 258.41 16.216C257.578 16.216 256.57 16.344 255.386 16.6C254.202 16.824 252.986 17.144 251.738 17.56L250.01 12.568C251.61 11.96 253.242 11.496 254.906 11.176C256.602 10.856 258.17 10.696 259.609 10.696C263.258 10.696 265.93 11.448 267.626 12.952C269.322 14.456 270.17 16.712 270.17 19.72V29.608ZM258.698 32.392C260.426 32.392 261.77 31.576 262.73 29.944V25.432H260.858C259.13 25.432 257.834 25.736 256.97 26.344C256.138 26.952 255.722 27.896 255.722 29.176C255.722 30.2 255.978 31 256.49 31.576C257.034 32.12 257.77 32.392 258.698 32.392ZM290.034 10.792C290.962 10.792 291.81 10.904 292.578 11.128L291.378 18.472C290.418 18.248 289.65 18.136 289.074 18.136C287.57 18.136 286.418 18.664 285.618 19.72C284.85 20.744 284.242 22.296 283.794 24.376V37H276.21V11.512H282.834L283.458 16.456C284.034 14.696 284.898 13.32 286.05 12.328C287.234 11.304 288.562 10.792 290.034 10.792ZM318.385 13C316.722 13.672 314.274 14.008 311.042 14.008C312.706 14.712 313.922 15.576 314.69 16.6C315.458 17.624 315.842 18.952 315.842 20.584C315.842 22.216 315.41 23.688 314.546 25C313.682 26.28 312.434 27.288 310.802 28.024C309.202 28.76 307.314 29.128 305.138 29.128C304.114 29.128 303.138 29.032 302.21 28.84C301.954 28.968 301.746 29.176 301.586 29.464C301.458 29.72 301.394 29.992 301.394 30.28C301.394 30.76 301.57 31.144 301.922 31.432C302.306 31.688 303.058 31.816 304.178 31.816H308.018C309.97 31.816 311.682 32.136 313.154 32.776C314.626 33.416 315.762 34.296 316.562 35.416C317.362 36.536 317.762 37.8 317.762 39.208C317.762 41.864 316.61 43.928 314.306 45.4C312.034 46.904 308.738 47.656 304.418 47.656C301.314 47.656 298.866 47.32 297.074 46.648C295.282 46.008 294.018 45.096 293.282 43.912C292.578 42.728 292.226 41.24 292.226 39.448H299.042C299.042 40.216 299.186 40.824 299.474 41.272C299.794 41.72 300.354 42.056 301.154 42.28C301.954 42.504 303.106 42.616 304.609 42.616C306.69 42.616 308.13 42.36 308.93 41.848C309.73 41.368 310.13 40.664 310.13 39.736C310.13 38.968 309.826 38.36 309.218 37.912C308.61 37.464 307.698 37.24 306.482 37.24H302.786C300.162 37.24 298.194 36.776 296.882 35.848C295.602 34.888 294.962 33.672 294.962 32.2C294.962 31.272 295.234 30.376 295.778 29.512C296.322 28.616 297.058 27.88 297.986 27.304C296.386 26.44 295.218 25.432 294.482 24.28C293.778 23.096 293.426 21.672 293.426 20.008C293.426 17.16 294.45 14.904 296.498 13.24C298.546 11.544 301.25 10.696 304.609 10.696C307.17 10.76 309.33 10.504 311.09 9.928C312.882 9.352 314.722 8.504 316.609 7.384L318.385 13ZM304.802 15.688C303.618 15.688 302.674 16.072 301.97 16.84C301.298 17.576 300.962 18.6 300.962 19.912C300.962 21.288 301.298 22.36 301.97 23.128C302.674 23.864 303.618 24.232 304.802 24.232C306.05 24.232 306.994 23.864 307.634 23.128C308.306 22.392 308.642 21.288 308.642 19.816C308.642 17.064 307.362 15.688 304.802 15.688ZM331.313 10.696C335.217 10.696 338.273 11.896 340.481 14.296C342.689 16.664 343.793 19.992 343.793 24.28C343.793 27 343.281 29.384 342.257 31.432C341.265 33.448 339.825 35.016 337.937 36.136C336.081 37.256 333.873 37.816 331.313 37.816C327.441 37.816 324.385 36.632 322.145 34.264C319.937 31.864 318.833 28.52 318.833 24.232C318.833 21.512 319.329 19.144 320.321 17.128C321.345 15.08 322.785 13.496 324.641 12.376C326.529 11.256 328.753 10.696 331.313 10.696ZM331.313 16.264C329.777 16.264 328.625 16.92 327.857 18.232C327.089 19.512 326.705 21.512 326.705 24.232C326.705 27.016 327.073 29.048 327.809 30.328C328.577 31.608 329.745 32.248 331.313 32.248C332.849 32.248 334.001 31.608 334.769 30.328C335.537 29.016 335.921 27 335.921 24.28C335.921 21.496 335.537 19.464 334.769 18.184C334.033 16.904 332.881 16.264 331.313 16.264Z" fill="#141414"/>
</svg>
