<svg width="221" height="50" viewBox="0 0 221 50" fill="none" xmlns="http://www.w3.org/2000/svg">
<path d="M31.2967 33.8818L39.5504 23.8975H43.9435C57.1241 27.1703 54.861 47.7507 43.9435 48.7791H18.6499L27.0367 38.7947H43.9435C43.9386 37.1068 43.9531 35.9655 43.9435 33.8818H31.2967Z" fill="url(#paint0_linear_145_54)" stroke="url(#paint1_linear_145_54)"/>
<path d="M27.1267 34.0401H18.7399C18.7399 34.0401 18.5374 22.2023 18.7399 18.9843C18.9424 15.7664 21.9371 9.83623 27.1267 9H52.5535L43.9004 18.9843H27.1267V34.0401Z" fill="url(#paint2_linear_145_54)" stroke="url(#paint3_linear_145_54)"/>
<path d="M8 19.3013V9H22.9099C18.9971 12.235 17.7268 14.4393 16.9193 19.3013H8Z" fill="url(#paint4_linear_145_54)" stroke="url(#paint5_linear_145_54)"/>
<path d="M88.5915 36.36C87.0315 36.36 85.7235 36.096 84.6675 35.568C83.6355 35.04 82.8675 34.272 82.3635 33.264C81.8595 32.232 81.6075 30.96 81.6075 29.448V21.78H79.7355C79.1595 21.78 78.7155 21.636 78.4035 21.348C78.0915 21.036 77.9355 20.616 77.9355 20.088C77.9355 19.536 78.0915 19.116 78.4035 18.828C78.7155 18.54 79.1595 18.396 79.7355 18.396H81.6075V15.12C81.6075 14.376 81.7995 13.812 82.1835 13.428C82.5915 13.044 83.1555 12.852 83.8755 12.852C84.5955 12.852 85.1475 13.044 85.5315 13.428C85.9155 13.812 86.1075 14.376 86.1075 15.12V18.396H89.9235C90.4995 18.396 90.9435 18.54 91.2555 18.828C91.5675 19.116 91.7235 19.536 91.7235 20.088C91.7235 20.616 91.5675 21.036 91.2555 21.348C90.9435 21.636 90.4995 21.78 89.9235 21.78H86.1075V29.196C86.1075 30.348 86.3595 31.212 86.8635 31.788C87.3675 32.364 88.1835 32.652 89.3115 32.652C89.7195 32.652 90.0795 32.616 90.3915 32.544C90.7035 32.472 90.9795 32.424 91.2195 32.4C91.5075 32.376 91.7475 32.472 91.9395 32.688C92.1315 32.88 92.2275 33.288 92.2275 33.912C92.2275 34.392 92.1435 34.824 91.9755 35.208C91.8315 35.568 91.5555 35.82 91.1475 35.964C90.8355 36.06 90.4275 36.144 89.9235 36.216C89.4195 36.312 88.9755 36.36 88.5915 36.36ZM100.788 36.36C99.7559 36.36 98.6639 36.252 97.5119 36.036C96.3599 35.82 95.3279 35.448 94.4159 34.92C94.0319 34.68 93.7559 34.404 93.5879 34.092C93.4439 33.756 93.3839 33.432 93.4079 33.12C93.4559 32.784 93.5759 32.496 93.7679 32.256C93.9839 32.016 94.2479 31.86 94.5599 31.788C94.8959 31.716 95.2559 31.776 95.6399 31.968C96.5999 32.424 97.4999 32.748 98.3399 32.94C99.1799 33.108 100.008 33.192 100.824 33.192C101.976 33.192 102.828 33 103.38 32.616C103.956 32.208 104.244 31.68 104.244 31.032C104.244 30.48 104.052 30.06 103.668 29.772C103.308 29.46 102.756 29.232 102.012 29.088L98.4119 28.404C96.9239 28.116 95.7839 27.576 94.9919 26.784C94.2239 25.968 93.8399 24.924 93.8399 23.652C93.8399 22.5 94.1519 21.504 94.7759 20.664C95.4239 19.824 96.3119 19.176 97.4399 18.72C98.5679 18.264 99.8639 18.036 101.328 18.036C102.384 18.036 103.368 18.156 104.28 18.396C105.216 18.612 106.116 18.96 106.98 19.44C107.34 19.632 107.58 19.884 107.7 20.196C107.844 20.508 107.88 20.832 107.808 21.168C107.736 21.48 107.592 21.768 107.376 22.032C107.16 22.272 106.884 22.428 106.548 22.5C106.236 22.548 105.876 22.476 105.468 22.284C104.724 21.9 104.004 21.624 103.308 21.456C102.636 21.288 101.988 21.204 101.364 21.204C100.188 21.204 99.3119 21.408 98.7359 21.816C98.1839 22.224 97.9079 22.764 97.9079 23.436C97.9079 23.94 98.0759 24.36 98.4119 24.696C98.7479 25.032 99.2639 25.26 99.9599 25.38L103.56 26.064C105.12 26.352 106.296 26.88 107.088 27.648C107.904 28.416 108.312 29.448 108.312 30.744C108.312 32.496 107.628 33.876 106.26 34.884C104.892 35.868 103.068 36.36 100.788 36.36ZM129.831 36.36C127.983 36.36 126.375 35.988 125.007 35.244C123.639 34.476 122.583 33.396 121.839 32.004C121.095 30.612 120.723 28.98 120.723 27.108C120.723 25.692 120.927 24.432 121.335 23.328C121.767 22.2 122.379 21.252 123.171 20.484C123.963 19.692 124.923 19.092 126.051 18.684C127.179 18.252 128.439 18.036 129.831 18.036C130.623 18.036 131.475 18.144 132.387 18.36C133.323 18.576 134.199 18.936 135.015 19.44C135.399 19.68 135.651 19.968 135.771 20.304C135.891 20.64 135.915 20.988 135.843 21.348C135.771 21.684 135.615 21.984 135.375 22.248C135.159 22.488 134.883 22.644 134.547 22.716C134.211 22.764 133.839 22.68 133.431 22.464C132.903 22.152 132.363 21.924 131.811 21.78C131.259 21.612 130.731 21.528 130.227 21.528C129.435 21.528 128.739 21.66 128.139 21.924C127.539 22.164 127.023 22.524 126.591 23.004C126.183 23.46 125.871 24.036 125.655 24.732C125.439 25.428 125.331 26.232 125.331 27.144C125.331 28.92 125.751 30.324 126.591 31.356C127.455 32.364 128.667 32.868 130.227 32.868C130.731 32.868 131.247 32.796 131.775 32.652C132.327 32.508 132.879 32.28 133.431 31.968C133.839 31.752 134.199 31.68 134.511 31.752C134.847 31.824 135.123 31.992 135.339 32.256C135.555 32.496 135.687 32.796 135.735 33.156C135.783 33.492 135.735 33.828 135.591 34.164C135.471 34.5 135.231 34.776 134.871 34.992C134.079 35.472 133.239 35.82 132.351 36.036C131.463 36.252 130.623 36.36 129.831 36.36ZM146.352 36.36C144.528 36.36 142.944 35.988 141.6 35.244C140.256 34.5 139.212 33.444 138.468 32.076C137.724 30.684 137.352 29.052 137.352 27.18C137.352 25.764 137.556 24.504 137.964 23.4C138.396 22.272 139.008 21.312 139.8 20.52C140.592 19.704 141.54 19.092 142.644 18.684C143.748 18.252 144.984 18.036 146.352 18.036C148.176 18.036 149.76 18.408 151.104 19.152C152.448 19.896 153.492 20.952 154.236 22.32C154.98 23.688 155.352 25.308 155.352 27.18C155.352 28.596 155.136 29.868 154.704 30.996C154.296 32.124 153.696 33.096 152.904 33.912C152.112 34.704 151.164 35.316 150.06 35.748C148.956 36.156 147.72 36.36 146.352 36.36ZM146.352 32.94C147.24 32.94 148.02 32.724 148.692 32.292C149.364 31.86 149.88 31.224 150.24 30.384C150.624 29.52 150.816 28.452 150.816 27.18C150.816 25.26 150.408 23.832 149.592 22.896C148.776 21.936 147.696 21.456 146.352 21.456C145.464 21.456 144.684 21.672 144.012 22.104C143.34 22.512 142.812 23.148 142.428 24.012C142.068 24.852 141.888 25.908 141.888 27.18C141.888 29.076 142.296 30.516 143.112 31.5C143.928 32.46 145.008 32.94 146.352 32.94ZM165.835 36.36C164.299 36.36 162.943 35.988 161.767 35.244C160.615 34.5 159.715 33.444 159.067 32.076C158.419 30.684 158.095 29.052 158.095 27.18C158.095 25.284 158.419 23.664 159.067 22.32C159.715 20.952 160.615 19.896 161.767 19.152C162.943 18.408 164.299 18.036 165.835 18.036C167.299 18.036 168.571 18.396 169.651 19.116C170.755 19.836 171.499 20.784 171.883 21.96H171.487V12.6C171.487 11.856 171.679 11.292 172.063 10.908C172.447 10.524 172.999 10.332 173.719 10.332C174.439 10.332 174.991 10.524 175.375 10.908C175.783 11.292 175.987 11.856 175.987 12.6V33.984C175.987 34.728 175.795 35.304 175.411 35.712C175.027 36.096 174.475 36.288 173.755 36.288C173.035 36.288 172.483 36.096 172.099 35.712C171.715 35.304 171.523 34.728 171.523 33.984V31.176L171.919 32.256C171.559 33.504 170.827 34.5 169.723 35.244C168.619 35.988 167.323 36.36 165.835 36.36ZM167.095 32.94C167.983 32.94 168.763 32.724 169.435 32.292C170.107 31.86 170.623 31.224 170.983 30.384C171.367 29.52 171.559 28.452 171.559 27.18C171.559 25.26 171.151 23.832 170.335 22.896C169.519 21.936 168.439 21.456 167.095 21.456C166.207 21.456 165.427 21.672 164.755 22.104C164.083 22.512 163.555 23.148 163.171 24.012C162.811 24.852 162.631 25.908 162.631 27.18C162.631 29.076 163.039 30.516 163.855 31.5C164.671 32.46 165.751 32.94 167.095 32.94ZM189.329 36.36C187.337 36.36 185.621 35.988 184.181 35.244C182.741 34.5 181.625 33.444 180.833 32.076C180.065 30.708 179.681 29.088 179.681 27.216C179.681 25.392 180.053 23.796 180.797 22.428C181.565 21.06 182.609 19.992 183.929 19.224C185.273 18.432 186.797 18.036 188.501 18.036C189.749 18.036 190.865 18.24 191.849 18.648C192.857 19.056 193.709 19.644 194.405 20.412C195.125 21.18 195.665 22.116 196.025 23.22C196.409 24.3 196.601 25.524 196.601 26.892C196.601 27.324 196.445 27.66 196.133 27.9C195.845 28.116 195.425 28.224 194.873 28.224H183.317V25.632H193.433L192.857 26.172C192.857 25.068 192.689 24.144 192.353 23.4C192.041 22.656 191.573 22.092 190.949 21.708C190.349 21.3 189.593 21.096 188.681 21.096C187.673 21.096 186.809 21.336 186.089 21.816C185.393 22.272 184.853 22.932 184.469 23.796C184.109 24.636 183.929 25.644 183.929 26.82V27.072C183.929 29.04 184.385 30.516 185.297 31.5C186.233 32.46 187.601 32.94 189.401 32.94C190.025 32.94 190.721 32.868 191.489 32.724C192.281 32.556 193.025 32.28 193.721 31.896C194.225 31.608 194.669 31.488 195.053 31.536C195.437 31.56 195.737 31.692 195.953 31.932C196.193 32.172 196.337 32.472 196.385 32.832C196.433 33.168 196.361 33.516 196.169 33.876C196.001 34.236 195.701 34.548 195.269 34.812C194.429 35.34 193.457 35.736 192.353 36C191.273 36.24 190.265 36.36 189.329 36.36ZM206.608 36.36C205.576 36.36 204.484 36.252 203.332 36.036C202.18 35.82 201.148 35.448 200.236 34.92C199.852 34.68 199.576 34.404 199.408 34.092C199.264 33.756 199.204 33.432 199.228 33.12C199.276 32.784 199.396 32.496 199.588 32.256C199.804 32.016 200.068 31.86 200.38 31.788C200.716 31.716 201.076 31.776 201.46 31.968C202.42 32.424 203.32 32.748 204.16 32.94C205 33.108 205.828 33.192 206.644 33.192C207.796 33.192 208.648 33 209.2 32.616C209.776 32.208 210.064 31.68 210.064 31.032C210.064 30.48 209.872 30.06 209.488 29.772C209.128 29.46 208.576 29.232 207.832 29.088L204.232 28.404C202.744 28.116 201.604 27.576 200.812 26.784C200.044 25.968 199.66 24.924 199.66 23.652C199.66 22.5 199.972 21.504 200.596 20.664C201.244 19.824 202.132 19.176 203.26 18.72C204.388 18.264 205.684 18.036 207.148 18.036C208.204 18.036 209.188 18.156 210.1 18.396C211.036 18.612 211.936 18.96 212.8 19.44C213.16 19.632 213.4 19.884 213.52 20.196C213.664 20.508 213.7 20.832 213.628 21.168C213.556 21.48 213.412 21.768 213.196 22.032C212.98 22.272 212.704 22.428 212.368 22.5C212.056 22.548 211.696 22.476 211.288 22.284C210.544 21.9 209.824 21.624 209.128 21.456C208.456 21.288 207.808 21.204 207.184 21.204C206.008 21.204 205.132 21.408 204.556 21.816C204.004 22.224 203.728 22.764 203.728 23.436C203.728 23.94 203.896 24.36 204.232 24.696C204.568 25.032 205.084 25.26 205.78 25.38L209.38 26.064C210.94 26.352 212.116 26.88 212.908 27.648C213.724 28.416 214.132 29.448 214.132 30.744C214.132 32.496 213.448 33.876 212.08 34.884C210.712 35.868 208.888 36.36 206.608 36.36Z" fill="white"/>
<defs>
<linearGradient id="paint0_linear_145_54" x1="35.825" y1="23.8975" x2="35.825" y2="48.7791" gradientUnits="userSpaceOnUse">
<stop stop-color="#905DC3"/>
<stop offset="1" stop-color="#6201C5"/>
</linearGradient>
<linearGradient id="paint1_linear_145_54" x1="35.825" y1="23.8975" x2="35.825" y2="48.7791" gradientUnits="userSpaceOnUse">
<stop stop-color="white"/>
<stop offset="1"/>
</linearGradient>
<linearGradient id="paint2_linear_145_54" x1="35.6017" y1="9" x2="35.6017" y2="34.0401" gradientUnits="userSpaceOnUse">
<stop offset="0.182292" stop-color="#966BC1"/>
<stop offset="1" stop-color="#6201C5"/>
</linearGradient>
<linearGradient id="paint3_linear_145_54" x1="35.6017" y1="9" x2="35.6017" y2="34.0401" gradientUnits="userSpaceOnUse">
<stop stop-color="white"/>
<stop offset="1"/>
</linearGradient>
<linearGradient id="paint4_linear_145_54" x1="15.455" y1="9" x2="15.455" y2="19.3013" gradientUnits="userSpaceOnUse">
<stop stop-color="#9870C1"/>
<stop offset="1" stop-color="#6201C5"/>
</linearGradient>
<linearGradient id="paint5_linear_145_54" x1="15.455" y1="9" x2="15.455" y2="19.3013" gradientUnits="userSpaceOnUse">
<stop stop-color="white"/>
<stop offset="1"/>
</linearGradient>
</defs>
</svg>
