<svg width="47" height="42" viewBox="0 0 47 42" fill="none" xmlns="http://www.w3.org/2000/svg">
<path d="M24.2967 25.8818L32.5504 15.8975H36.9435C50.1241 19.1703 47.861 39.7507 36.9435 40.7791H11.6499L20.0367 30.7947H36.9435C36.9386 29.1068 36.9531 27.9655 36.9435 25.8818H24.2967Z" fill="url(#paint0_linear_145_54)" stroke="url(#paint1_linear_145_54)"/>
<path d="M20.1267 26.0401H11.7399C11.7399 26.0401 11.5374 14.2023 11.7399 10.9843C11.9424 7.76639 14.9371 1.83623 20.1267 1H45.5535L36.9004 10.9843H20.1267V26.0401Z" fill="url(#paint2_linear_145_54)" stroke="url(#paint3_linear_145_54)"/>
<path d="M1 11.3013V1H15.9099C11.9971 4.23503 10.7268 6.43931 9.91934 11.3013H1Z" fill="url(#paint4_linear_145_54)" stroke="url(#paint5_linear_145_54)"/>
<defs>
<linearGradient id="paint0_linear_145_54" x1="28.825" y1="15.8975" x2="28.825" y2="40.7791" gradientUnits="userSpaceOnUse">
<stop stop-color="#905DC3"/>
<stop offset="1" stop-color="#6201C5"/>
</linearGradient>
<linearGradient id="paint1_linear_145_54" x1="28.825" y1="15.8975" x2="28.825" y2="40.7791" gradientUnits="userSpaceOnUse">
<stop stop-color="white"/>
<stop offset="1"/>
</linearGradient>
<linearGradient id="paint2_linear_145_54" x1="28.6017" y1="1" x2="28.6017" y2="26.0401" gradientUnits="userSpaceOnUse">
<stop offset="0.182292" stop-color="#966BC1"/>
<stop offset="1" stop-color="#6201C5"/>
</linearGradient>
<linearGradient id="paint3_linear_145_54" x1="28.6017" y1="1" x2="28.6017" y2="26.0401" gradientUnits="userSpaceOnUse">
<stop stop-color="white"/>
<stop offset="1"/>
</linearGradient>
<linearGradient id="paint4_linear_145_54" x1="8.45497" y1="1" x2="8.45497" y2="11.3013" gradientUnits="userSpaceOnUse">
<stop stop-color="#9870C1"/>
<stop offset="1" stop-color="#6201C5"/>
</linearGradient>
<linearGradient id="paint5_linear_145_54" x1="8.45497" y1="1" x2="8.45497" y2="11.3013" gradientUnits="userSpaceOnUse">
<stop stop-color="white"/>
<stop offset="1"/>
</linearGradient>
</defs>
</svg>
